<svg xmlns="http://www.w3.org/2000/svg" width="23" height="24" viewBox="0 0 23 24" fill="none">
<path fill-rule="evenodd" clip-rule="evenodd" d="M13.619 0.543534C12.2981 -0.181177 10.7019 -0.181178 9.38097 0.543533L2.30732 4.42453C0.885008 5.20489 0 6.70473 0 8.33479V15.6652C0 17.2953 0.885006 18.7951 2.30732 19.5755L9.38097 23.4565C10.7019 24.1812 12.2981 24.1812 13.619 23.4565L20.6927 19.5755C22.115 18.7951 23 17.2953 23 15.6652V8.33479C23 6.70473 22.115 5.20489 20.6927 4.42453L13.619 0.543534ZM11.5003 7.54622C11.0812 7.54622 10.8009 8.05223 10.2402 9.06425L10.0951 9.32607C9.93582 9.61365 9.85616 9.75744 9.73195 9.85231C9.60774 9.94719 9.45305 9.98241 9.14366 10.0528L8.86199 10.117C7.77325 10.3648 7.22888 10.4888 7.09937 10.9078C6.96985 11.3269 7.34097 11.7636 8.0832 12.6369L8.27523 12.8628C8.48615 13.111 8.5916 13.2351 8.63905 13.3886C8.68649 13.5421 8.67055 13.7077 8.63866 14.0388L8.60963 14.3402C8.49741 15.5054 8.4413 16.088 8.78038 16.347C9.11945 16.606 9.62914 16.3699 10.6485 15.8976L10.9123 15.7754C11.2019 15.6412 11.3468 15.5741 11.5003 15.5741C11.6538 15.5741 11.7987 15.6412 12.0883 15.7754L12.3521 15.8976C13.3715 16.3699 13.8812 16.606 14.2202 16.347C14.5593 16.088 14.5032 15.5054 14.391 14.3402L14.3619 14.0388C14.3301 13.7077 14.3141 13.5421 14.3616 13.3886C14.409 13.2351 14.5145 13.111 14.7254 12.8628L14.9174 12.6369C15.6596 11.7636 16.0308 11.3269 15.9012 10.9078C15.7717 10.4888 15.2274 10.3648 14.1386 10.117L13.8569 10.0528C13.5476 9.98241 13.3929 9.94719 13.2687 9.85231C13.1444 9.75744 13.0648 9.61365 12.9055 9.32606L12.7604 9.06425C12.1997 8.05223 11.9194 7.54622 11.5003 7.54622Z" fill="#FFCE10"/>
</svg>